# xmcd CD database file
#
# Track frame offsets:
#	150
#	19115
#	39945
#	65174
#	92605
#	116286
#	140600
#	169538
#
# Disc length: 2603 seconds
#
# Revision: 0
# Processed by: cddbd v1.5.1PL2 Copyright (c) Steve Scherf et al.
# Submitted via: CDex 1.51
#
DISCID=600a2908
DTITLE=ed calle - plays santana
DYEAR=2005
DGENRE=Jazz
TTITLE0=evil ways
TTITLE1=el faro
TTITLE2=smooth
TTITLE3=europa
TTITLE4=oye como va
TTITLE5=samba pa ti
TTITLE6=black magic woman
TTITLE7=Flor D'Luna
EXTD=YEAR: 2005
EXTT0=
EXTT1=
EXTT2=
EXTT3=
EXTT4=
EXTT5=
EXTT6=
EXTT7=
PLAYORDER=
